<svg width="100%" height="100%" viewBox="0 0 225 225"
     xmlns="http://www.w3.org/2000/svg" 
     xmlns:xlink="http://www.w3.org/1999/xlink">

  <desc>
    Animated Gear Set
    
    Original work: https://openclipart.org/detail/294064/planetarygearsetcalculatednew
    
    Jay Nick
    steamcoded.org
  </desc>

  <style type="text/css"><![CDATA[
    @keyframes cw {from {transform:rotate(0deg)} to {transform:rotate(360deg)} }
    @keyframes ccw {from {transform:rotate(0deg)} to {transform:rotate(-360deg)} }
    
    .animate1 {animation:ccw 4s linear infinite; transform-origin:112.5px 112.5px;animation-delay:1s;}
    .animate2 {animation:cw 2s linear infinite; transform-origin:112.46227px 55.265px;animation-delay:1s;}
    .animate3 {animation:ccw 8s linear infinite; transform-origin:112.5px 112.5px;animation-delay:1s;}
  ]]>
  </style>
  
  <defs>
    <symbol id="gear" style="fill:#66cc33;stroke:#000000;stroke-width:0.3;">
      <path d="M127.44 52.66l2.62-0.45 1.17 0.08 4.01 1.86v2.23l-4.01 1.86-1.17 0.08-2.62-0.45-1.33 4.1 2.38 1.16 0.91 0.76 2.15 3.86-1.32 1.81-4.33-0.86-1-0.62-1.85-1.91-3.48 2.54 1.24 2.34 0.28 1.15-0.53 4.38-2.12 0.69-3-3.23-0.45-1.1-0.37-2.62h-4.31l-0.38 2.62-0.44 1.1-3 3.23-2.13-0.69-0.53-4.38 0.29-1.15 1.24-2.34-3.49-2.54-1.85 1.91-1 0.62-4.33 0.86-1.31-1.81 2.15-3.86 0.9-0.76 2.38-1.16-1.33-4.1-2.61 0.45-1.18-0.08-4.01-1.86v-2.23l4.01-1.86 1.18-0.08 2.61 0.45 1.33-4.09-2.38-1.17-0.9-0.76-2.15-3.86 1.31-1.81 4.33 0.86 1 0.62 1.85 1.91 3.49-2.54-1.24-2.34-0.29-1.15 0.53-4.38 2.13-0.69 3 3.23 0.44 1.1 0.38 2.63h4.31l0.37-2.63 0.45-1.1 3-3.23 2.12 0.69 0.53 4.38-0.28 1.15-1.24 2.34 3.48 2.54 1.85-1.91 1-0.62 4.33-0.86 1.32 1.81-2.15 3.86-0.91 0.76-2.38 1.17z"/>
      <circle style="fill:#0074e4;stroke-width:0.4;" cx="112.5" cy="55.265" r="5.97"/>
    </symbol>
  </defs>
  
  <g class="animate3">  
    <circle style="fill:#0074e4;stroke:#000000;stroke-width:0.4;" cx="112.5" cy="112.5" r="65.29"/>
    <path d="M47.21,112.5l130.58,0" style="stroke:#666;" />
    <path d="M47.21,112.5l130.58,0" style="stroke:#666;" transform="rotate(60,112.5,112.5)" />
    <path d="M47.21,112.5l130.58,0" style="stroke:#666;" transform="rotate(120,112.5,112.5)" />

    <path class="animate1" style="fill:#ff9900;stroke:#000000;stroke-width:0.3;" d="M146.56 108.88l1.5-0.14 2.33 0.35 3.9 1.66v2.64l-3.9 1.66-2.33 0.36-1.5-0.15-0.68 4.3 1.47 0.33 2.11 1.06 3.19 2.78-0.81 2.51-4.22 0.38-2.33-0.39-1.38-0.6-1.98 3.88 1.3 0.77 1.68 1.65 2.17 3.64-1.55 2.13-4.13-0.94-2.09-1.09-1.13-1-3.08 3.08 1 1.13 1.08 2.09 0.95 4.13-2.14 1.56-3.63-2.18-1.65-1.68-0.77-1.3-3.88 1.98 0.6 1.38 0.39 2.33-0.38 4.22-2.51 0.81-2.79-3.19-1.05-2.11-0.33-1.47-4.3 0.68 0.14 1.5-0.35 2.33-1.66 3.9h-2.64l-1.66-3.9-0.35-2.33 0.14-1.5-4.3-0.68-0.33 1.47-1.05 2.11-2.79 3.19-2.51-0.81-0.38-4.22 0.39-2.33 0.6-1.38-3.88-1.98-0.77 1.3-1.65 1.68-3.63 2.18-2.14-1.56 0.95-4.13 1.08-2.09 1-1.13-3.08-3.08-1.13 1-2.09 1.09-4.13 0.94-1.55-2.13 2.17-3.64 1.68-1.65 1.3-0.77-1.98-3.88-1.38 0.6-2.33 0.39-4.22-0.38-0.81-2.51 3.19-2.78 2.11-1.06 1.47-0.33-0.68-4.3-1.5 0.15-2.33-0.36-3.9-1.66v-2.64l3.9-1.66 2.33-0.35 1.5 0.14 0.68-4.3-1.47-0.33-2.11-1.05-3.19-2.79 0.81-2.51 4.22-0.37 2.33 0.38 1.38 0.6 1.98-3.87-1.3-0.77-1.68-1.66-2.17-3.63 1.55-2.14 4.13 0.95 2.09 1.08 1.13 1 3.08-3.08-1-1.13-1.08-2.09-0.95-4.13 2.14-1.55 3.63 2.17 1.65 1.68 0.77 1.3 3.88-1.97-0.6-1.39-0.39-2.32 0.38-4.22 2.51-0.82 2.79 3.19 1.05 2.11 0.33 1.47 4.3-0.68-0.14-1.5 0.35-2.33 1.66-3.9h2.64l1.66 3.9 0.35 2.33-0.14 1.5 4.3 0.68 0.33-1.47 1.05-2.11 2.79-3.19 2.51 0.82 0.38 4.22-0.39 2.32-0.6 1.39 3.88 1.97 0.77-1.3 1.65-1.68 3.63-2.17 2.14 1.55-0.95 4.13-1.08 2.09-1 1.13 3.08 3.08 1.13-1 2.09-1.08 4.13-0.95 1.55 2.14-2.17 3.63-1.68 1.66-1.3 0.77 1.98 3.87 1.38-0.6 2.33-0.38 4.22 0.37 0.81 2.51-3.19 2.79-2.11 1.05-1.47 0.33z"/>
    <circle style="fill:#000033;stroke:#000000;stroke-width:0.4;" cx="112.5" cy="112.5" r="11.94"/>

    <use xlink:href="#gear" class="animate2" />
    <g transform="rotate(60,112.5,112.5)">
      <g transform="rotate(-60,112.5,55.265)">
        <use xlink:href="#gear" class="animate2" />
      </g>
    </g>
    <g transform="rotate(120,112.5,112.5)">
      <g transform="rotate(-120,112.5,55.265)">
        <use xlink:href="#gear" class="animate2" />
      </g>
    </g>
    <g transform="rotate(180,112.5,112.5)">
      <g transform="rotate(-180,112.5,55.265)">
        <use xlink:href="#gear" class="animate2" />
      </g>
    </g>
    <g transform="rotate(240,112.5,112.5)">
      <g transform="rotate(-240,112.5,55.265)">
        <use xlink:href="#gear" class="animate2" />
      </g>
    </g>
    <g transform="rotate(300,112.5,112.5)">
      <g transform="rotate(-300,112.5,55.265)">
        <use xlink:href="#gear" class="animate2" />
      </g>
    </g>
  </g>
  
  <g style="fill:#c0c0c0;stroke:#000000;stroke-width:0.4;">
    <path style="fill:#3139ae;stroke:#000000;stroke-width:0.4;" d="M112.5 2.79a109.71 109.71 0 0 0-109.71 109.71 109.71 109.71 0 0 0 109.71 109.71 109.71 109.71 0 0 0 109.71-109.71 109.71 109.71 0 0 0-109.71-109.71z m0 14.46a95.25 95.25 0 0 1 95.25 95.25 95.25 95.25 0 0 1-95.25 95.25 95.25 95.25 0 0 1-95.25-95.25 95.25 95.25 0 0 1 95.25-95.25z"/>
    <path style="fill:#fc3030;stroke:#000000;stroke-width:0.3;" d="M105.03 17.56a95.23 95.23 0 0 0-87.47 102.41 95.23 95.23 0 0 0 102.41 87.47 95.23 95.23 0 0 0 87.47-102.41 95.23 95.23 0 0 0-102.41-87.47z m-0.23 15.49l2.88-0.22 1.84 3.71 1.14 3.77 3.68 0 1.14-3.77 1.84-3.71 2.88 0.22 1.24 3.96 0.54 3.9 3.63 0.57 1.72-3.54 2.39-3.38 2.82 0.68 0.59 4.1-0.07 3.93 3.5 1.14 2.25-3.23 2.9-2.96 2.67 1.1-0.05 4.14-0.69 3.88 3.27 1.67 2.73-2.84 3.33-2.47 2.46 1.51-0.7 4.08-1.28 3.72 2.97 2.16 3.14-2.37 3.67-1.92 2.2 1.87-1.33 3.93-1.85 3.47 2.6 2.6 3.47-1.85 3.93-1.33 1.87 2.2-1.92 3.67-2.37 3.14 2.16 2.97 3.72-1.28 4.08-0.7 1.51 2.46-2.47 3.33-2.84 2.73 1.67 3.27 3.88-0.69 4.14-0.05 1.1 2.68-2.96 2.89-3.23 2.25 1.14 3.5 3.93-0.07 4.1 0.59 0.68 2.82-3.38 2.39-3.54 1.72 0.57 3.63 3.9 0.55 3.96 1.23 0.22 2.88-3.71 1.84-3.77 1.14 0 3.68 3.77 1.14 3.71 1.84-0.22 2.88-3.96 1.23-3.9 0.55-0.57 3.63 3.54 1.72 3.38 2.39-0.68 2.82-4.1 0.59-3.93-0.07-1.14 3.5 3.23 2.25 2.96 2.89-1.1 2.68-4.14-0.05-3.88-0.69-1.67 3.27 2.84 2.73 2.47 3.33-1.51 2.46-4.08-0.7-3.72-1.28-2.16 2.97 2.37 3.14 1.92 3.67-1.87 2.2-3.93-1.33-3.47-1.85-2.6 2.6 1.85 3.47 1.33 3.93-2.2 1.87-3.67-1.92-3.14-2.37-2.97 2.16 1.28 3.72 0.7 4.08-2.46 1.51-3.33-2.47-2.73-2.84-3.27 1.67 0.69 3.88 0.05 4.14-2.67 1.1-2.9-2.96-2.25-3.23-3.5 1.14 0.07 3.93-0.59 4.1-2.82 0.68-2.39-3.38-1.72-3.54-3.63 0.57-0.54 3.9-1.24 3.96-2.88 0.22-1.84-3.71-1.14-3.77-3.68 0-1.14 3.77-1.84 3.71-2.88-0.22-1.23-3.96-0.55-3.9-3.63-0.57-1.72 3.54-2.39 3.38-2.82-0.68-0.59-4.1 0.07-3.93-3.5-1.14-2.25 3.23-2.89 2.96-2.68-1.1 0.05-4.14 0.69-3.88-3.27-1.67-2.73 2.84-3.33 2.47-2.46-1.51 0.7-4.08 1.28-3.72-2.97-2.16-3.14 2.37-3.67 1.92-2.2-1.87 1.33-3.93 1.85-3.47-2.6-2.6-3.47 1.85-3.93 1.33-1.87-2.2 1.92-3.67 2.37-3.14-2.16-2.97-3.72 1.28-4.08 0.7-1.51-2.46 2.47-3.33 2.84-2.73-1.67-3.27-3.88 0.69-4.14 0.05-1.1-2.68 2.96-2.89 3.23-2.25-1.14-3.5-3.93 0.07-4.1-0.59-0.68-2.82 3.38-2.39 3.54-1.72-0.57-3.63-3.9-0.55-3.96-1.23-0.22-2.88 3.71-1.84 3.77-1.14 0-3.68-3.77-1.14-3.71-1.84 0.22-2.88 3.96-1.24 3.9-0.54 0.57-3.63-3.54-1.72-3.38-2.39 0.68-2.82 4.1-0.59 3.93 0.07 1.14-3.5-3.23-2.25-2.96-2.89 1.1-2.68 4.15 0.05 3.87 0.69 1.67-3.27-2.84-2.73-2.47-3.33 1.51-2.46 4.08 0.7 3.72 1.28 2.16-2.97-2.37-3.14-1.92-3.67 1.87-2.2 3.93 1.33 3.47 1.85 2.6-2.6-1.85-3.47-1.33-3.93 2.2-1.87 3.67 1.92 3.14 2.37 2.97-2.16-1.28-3.72-0.7-4.08 2.46-1.51 3.33 2.47 2.73 2.84 3.27-1.67-0.69-3.88-0.05-4.14 2.68-1.1 2.89 2.96 2.25 3.23 3.5-1.14-0.07-3.93 0.59-4.1 2.82-0.68 2.39 3.38 1.72 3.54 3.63-0.57 0.55-3.9z"/>
    <circle  cx="112.5" cy="17.8" r="6.2"/>
    <circle  cx="112.5" cy="17.8" r="6.2" transform="rotate(60,112.5,112.5)"/>
    <circle  cx="112.5" cy="17.8" r="6.2" transform="rotate(120,112.5,112.5)"/>
    <circle  cx="112.5" cy="17.8" r="6.2" transform="rotate(180,112.5,112.5)"/>
    <circle  cx="112.5" cy="17.8" r="6.2" transform="rotate(240,112.5,112.5)"/>
    <circle  cx="112.5" cy="17.8" r="6.2" transform="rotate(300,112.5,112.5)"/>
  </g>
</svg>

