<?xml version="1.0" encoding="utf-8"?>
<!-- Generator: Adobe Illustrator 23.0.1, SVG Export Plug-In . SVG Version: 6.00 Build 0)  -->
<svg version="1.1" id="Ebene_1" xmlns="http://www.w3.org/2000/svg" xmlns:xlink="http://www.w3.org/1999/xlink" x="0px" y="0px"
	 viewBox="0 0 1080 1920" style="enable-background:new 0 0 1080 1920;" xml:space="preserve">
<style type="text/css">
	.st0{fill:#E60000;}
	.st1{fill:#A1965F;stroke:#A4A4A4;stroke-width:3;}
	.st2{fill:#A4A4A4;}
</style>
<g>
	<rect x="289.67" y="203.24" class="st0" width="545.72" height="1609.23"/>
	<rect x="429.45" y="506.22" class="st1" width="23.79" height="60.05"/>
	<rect x="471.37" y="506.22" class="st1" width="23.79" height="60.05"/>
	<rect x="555.18" y="506.22" class="st1" width="23.79" height="60.05"/>
	<rect x="604.39" y="506.22" class="st1" width="23.79" height="60.05"/>
	<rect x="647.75" y="506.22" class="st1" width="23.79" height="60.05"/>
	<rect x="349.11" y="596.41" class="st2" width="30.08" height="1175.23"/>
	<rect x="647.75" y="596.41" class="st2" width="30.08" height="1175.23"/>
	<rect x="742.28" y="596.41" class="st2" width="30.08" height="1175.23"/>
	<rect x="447.94" y="596.41" class="st2" width="30.08" height="1175.23"/>
	<rect x="548.9" y="596.41" class="st2" width="30.08" height="1175.23"/>
	<rect x="436.32" y="85.24" width="41.66" height="286.16"/>
	<rect x="538.42" y="85.24" width="41.66" height="286.16"/>
	<rect x="641" y="85.24" width="41.66" height="286.16"/>
	<g>
		<path d="M448.41,473.27c2.48,1.52,6.09,2.79,9.9,2.79c5.65,0,8.95-2.98,8.95-7.3c0-4-2.28-6.28-8.06-8.5
			c-6.98-2.48-11.3-6.09-11.3-12.12c0-6.66,5.52-11.61,13.83-11.61c4.38,0,7.55,1.02,9.46,2.09l-1.52,4.51
			c-1.4-0.76-4.25-2.03-8.12-2.03c-5.84,0-8.06,3.49-8.06,6.41c0,4,2.6,5.97,8.5,8.25c7.23,2.79,10.92,6.28,10.92,12.57
			c0,6.6-4.89,12.31-14.98,12.31c-4.12,0-8.63-1.21-10.92-2.73L448.41,473.27z"/>
	</g>
	<g>
		<path d="M571.94,445.81v20.4h19.62v5.21h-19.62V492h-5.56v-20.58h-19.62v-5.21h19.62v-20.4H571.94z"/>
	</g>
	<g>
		<path d="M671.8,465.69v5.64h-21.45v-5.64H671.8z"/>
	</g>
</g>
</svg>
